<svg width="26" height="28" viewBox="0 0 26 28" fill="none" xmlns="http://www.w3.org/2000/svg">
<path d="M12 0.666672L4.66667 12.6667H19.3333L12 0.666672ZM12 5.78667L14.5733 10H9.41333L12 5.78667ZM19.3333 15.3333C16.0133 15.3333 13.3333 18.0133 13.3333 21.3333C13.3333 24.6533 16.0133 27.3333 19.3333 27.3333C22.6533 27.3333 25.3333 24.6533 25.3333 21.3333C25.3333 18.0133 22.6533 15.3333 19.3333 15.3333ZM19.3333 24.6667C17.4933 24.6667 16 23.1733 16 21.3333C16 19.4933 17.4933 18 19.3333 18C21.1733 18 22.6667 19.4933 22.6667 21.3333C22.6667 23.1733 21.1733 24.6667 19.3333 24.6667ZM0 26.6667H10.6667V16H0V26.6667ZM2.66667 18.6667H8V24H2.66667V18.6667Z" fill="#F2F0FF"/>
</svg>
