<svg width="28" height="34" viewBox="0 0 28 34" fill="none" xmlns="http://www.w3.org/2000/svg">
<path d="M0.666748 28.6666V25.8887H4.00008V13.5554C4.00008 11.2315 4.68994 9.15512 6.06967 7.32623C7.44911 5.49762 9.25925 4.33331 11.5001 3.83331V2.83331C11.5001 2.13887 11.7431 1.54859 12.2292 1.06248C12.7154 0.576369 13.3056 0.333313 14.0001 0.333313C14.6945 0.333313 15.2848 0.576369 15.7709 1.06248C16.257 1.54859 16.5001 2.13887 16.5001 2.83331V3.83331C18.7409 4.33331 20.5511 5.49762 21.9305 7.32623C23.3102 9.15512 24.0001 11.2315 24.0001 13.5554V25.8887H27.3334V28.6666H0.666748ZM14.0001 33.6666C13.0834 33.6666 12.2987 33.3403 11.6459 32.6875C10.9931 32.0347 10.6667 31.25 10.6667 30.3333H17.3334C17.3334 31.25 17.007 32.0347 16.3542 32.6875C15.7015 33.3403 14.9167 33.6666 14.0001 33.6666ZM6.778 25.8887H21.2222V13.5554C21.2222 11.5554 20.5186 9.85179 19.1113 8.44456C17.7038 7.03706 16.0001 6.33331 14.0001 6.33331C12.0001 6.33331 10.2963 7.03706 8.88883 8.44456C7.48161 9.85179 6.778 11.5554 6.778 13.5554V25.8887Z" fill="black"/>
</svg>
