<svg width="32" height="32" viewBox="0 0 32 32" fill="none" xmlns="http://www.w3.org/2000/svg">
<path d="M16 7C12.68 7 10 9.68 10 13C10 16.32 12.68 19 16 19C19.32 19 22 16.32 22 13C22 9.68 19.32 7 16 7ZM16 16C14.34 16 13 14.66 13 13C13 11.34 14.34 10 16 10C17.66 10 19 11.34 19 13C19 14.66 17.66 16 16 16Z" fill="#F2F0FF"/>
<path d="M16 0C7.16 0 0 7.16 0 16C0 24.84 7.16 32 16 32C24.84 32 32 24.84 32 16C32 7.16 24.84 0 16 0ZM16 29C13.02 29 10.28 27.98 8.08 26.28C10.38 24.84 13.1 24 16 24C18.9 24 21.62 24.84 23.92 26.28C21.72 27.98 18.98 29 16 29ZM26.14 24.12C23.26 22.14 19.76 21 16 21C12.24 21 8.76 22.16 5.86 24.12C4.08 21.9 3 19.08 3 16C3 8.84 8.84 3 16 3C23.16 3 29 8.84 29 16C29 19.08 27.92 21.9 26.14 24.12Z" fill="#F2F0FF"/>
</svg>
