<svg width="26" height="28" viewBox="0 0 26 28" fill="none" xmlns="http://www.w3.org/2000/svg">
<path d="M22.9067 15.3067C22.96 14.88 23 14.4533 23 14C23 13.5467 22.96 13.12 22.9067 12.6933L25.72 10.4933C25.9734 10.2933 26.04 9.93333 25.88 9.64L23.2134 5.02666C23.0934 4.81333 22.8667 4.69333 22.6267 4.69333C22.5467 4.69333 22.4667 4.70666 22.4 4.73333L19.08 6.06666C18.3867 5.53333 17.64 5.09333 16.8267 4.76L16.32 1.22666C16.28 0.906664 16 0.666664 15.6667 0.666664H10.3334C10 0.666664 9.72003 0.906664 9.68003 1.22666L9.17336 4.76C8.36003 5.09333 7.61336 5.54666 6.92003 6.06666L3.60003 4.73333C3.52003 4.70666 3.44003 4.69333 3.36003 4.69333C3.13336 4.69333 2.9067 4.81333 2.7867 5.02666L0.12003 9.64C-0.0533034 9.93333 0.0266968 10.2933 0.28003 10.4933L3.09336 12.6933C3.04003 13.12 3.00003 13.56 3.00003 14C3.00003 14.44 3.04003 14.88 3.09336 15.3067L0.28003 17.5067C0.0266968 17.7067 -0.03997 18.0667 0.12003 18.36L2.7867 22.9733C2.9067 23.1867 3.13336 23.3067 3.37336 23.3067C3.45336 23.3067 3.53336 23.2933 3.60003 23.2667L6.92003 21.9333C7.61336 22.4667 8.36003 22.9067 9.17336 23.24L9.68003 26.7733C9.72003 27.0933 10 27.3333 10.3334 27.3333H15.6667C16 27.3333 16.28 27.0933 16.32 26.7733L16.8267 23.24C17.64 22.9067 18.3867 22.4533 19.08 21.9333L22.4 23.2667C22.48 23.2933 22.56 23.3067 22.64 23.3067C22.8667 23.3067 23.0934 23.1867 23.2134 22.9733L25.88 18.36C26.04 18.0667 25.9734 17.7067 25.72 17.5067L22.9067 15.3067ZM20.2667 13.0267C20.32 13.44 20.3334 13.72 20.3334 14C20.3334 14.28 20.3067 14.5733 20.2667 14.9733L20.08 16.48L21.2667 17.4133L22.7067 18.5333L21.7734 20.1467L20.08 19.4667L18.6934 18.9067L17.4934 19.8133C16.92 20.24 16.3734 20.56 15.8267 20.7867L14.4134 21.36L14.2 22.8667L13.9334 24.6667H12.0667L11.8134 22.8667L11.6 21.36L10.1867 20.7867C9.61336 20.5467 9.08003 20.24 8.5467 19.84L7.33336 18.9067L5.92003 19.48L4.2267 20.16L3.29336 18.5467L4.73336 17.4267L5.92003 16.4933L5.73336 14.9867C5.69336 14.5733 5.6667 14.2667 5.6667 14C5.6667 13.7333 5.69336 13.4267 5.73336 13.0267L5.92003 11.52L4.73336 10.5867L3.29336 9.46666L4.2267 7.85333L5.92003 8.53333L7.3067 9.09333L8.5067 8.18666C9.08003 7.76 9.6267 7.44 10.1734 7.21333L11.5867 6.64L11.8 5.13333L12.0667 3.33333H13.92L14.1734 5.13333L14.3867 6.64L15.8 7.21333C16.3734 7.45333 16.9067 7.76 17.44 8.16L18.6534 9.09333L20.0667 8.52L21.76 7.84L22.6934 9.45333L21.2667 10.5867L20.08 11.52L20.2667 13.0267ZM13 8.66666C10.0534 8.66666 7.6667 11.0533 7.6667 14C7.6667 16.9467 10.0534 19.3333 13 19.3333C15.9467 19.3333 18.3334 16.9467 18.3334 14C18.3334 11.0533 15.9467 8.66666 13 8.66666ZM13 16.6667C11.5334 16.6667 10.3334 15.4667 10.3334 14C10.3334 12.5333 11.5334 11.3333 13 11.3333C14.4667 11.3333 15.6667 12.5333 15.6667 14C15.6667 15.4667 14.4667 16.6667 13 16.6667Z" fill="#F2F0FF"/>
</svg>
